<?xml version="1.0" encoding="UTF-8" standalone="no"?>
<svg
   xmlns:dc="http://purl.org/dc/elements/1.1/"
   xmlns:cc="http://creativecommons.org/ns#"
   xmlns:rdf="http://www.w3.org/1999/02/22-rdf-syntax-ns#"
   xmlns:svg="http://www.w3.org/2000/svg"
   xmlns="http://www.w3.org/2000/svg"
   xmlns:sodipodi="http://sodipodi.sourceforge.net/DTD/sodipodi-0.dtd"
   xmlns:inkscape="http://www.inkscape.org/namespaces/inkscape"
   height="1408"
   viewBox="0 0 1792 1408"
   width="1792"
   version="1.1"
   id="svg4"
   sodipodi:docname="barcode.svg"
   inkscape:version="0.92.3 (2405546, 2018-03-11)">
  <metadata
     id="metadata10">
    <rdf:RDF>
      <cc:Work
         rdf:about="">
        <dc:format>image/svg+xml</dc:format>
        <dc:type
           rdf:resource="http://purl.org/dc/dcmitype/StillImage" />
        <dc:title></dc:title>
      </cc:Work>
    </rdf:RDF>
  </metadata>
  <defs
     id="defs8" />
  <sodipodi:namedview
     pagecolor="#ffffff"
     bordercolor="#666666"
     borderopacity="1"
     objecttolerance="10"
     gridtolerance="10"
     guidetolerance="10"
     inkscape:pageopacity="0"
     inkscape:pageshadow="2"
     inkscape:window-width="640"
     inkscape:window-height="480"
     id="namedview6"
     showgrid="false"
     fit-margin-top="0"
     fit-margin-left="0"
     fit-margin-right="0"
     fit-margin-bottom="0"
     inkscape:zoom="0.13169643"
     inkscape:cx="763.11864"
     inkscape:cy="640"
     inkscape:window-x="0"
     inkscape:window-y="0"
     inkscape:window-maximized="0"
     inkscape:current-layer="svg4" />
  <path
     d="M 63,1408 H 0 V 0 h 63 z m 63,-1 H 94 V 0 h 32 z m 94,0 H 189 V 0 h 31 z m 157,0 H 346 V 0 h 31 z m 157,0 H 472 V 0 h 62 z m 126,0 H 629 V 0 h 31 z m 63,0 H 692 V 0 h 31 z m 63,0 H 755 V 0 h 31 z m 157,0 H 880 V 0 h 63 z m 157,0 h -63 V 0 h 63 z m 126,0 h -63 V 0 h 63 z m 126,0 h -63 V 0 h 63 z m 94,0 h -63 V 0 h 63 z m 189,0 h -94 V 0 h 94 z m 63,0 h -32 V 0 h 32 z m 94,1 h -63 V 0 h 63 z"
     id="path2"
     inkscape:connector-curvature="0" />
</svg>
